# xmcd CD database file
#
# Track frame offsets:
#	182
#	12492
#	25890
#	39200
#	51805
#	65095
#	78967
#	90710
#	103160
#	116367
#	128925
#	141715
#	154405
#	166257
#	178490
#	191855
#	202487
#	216337
#	229567
#	243417
#	257442
#
# Disc length: 3615 seconds
#
# Revision: 0
# Processed by: cddbd v1.5PL3 Copyright (c) Steve Scherf et al.
# Submitted via: CDex 1.51
#
DISCID=3b0e1d15
DTITLE=Albert Ammons - 1946-1948
DYEAR=1900
DGENRE=Jazz
TTITLE0=Kilroy Boogie
TTITLE1=Deep In The Heart Of Texas Boogie
TTITLE2=Sweet Patootie Boogie
TTITLE3=Twelfth Street Boogie
TTITLE4=St. Louis Blues
TTITLE5=Shufflin' The Boogie
TTITLE6=S.P. Blues
TTITLE7=Hiroshima
TTITLE8=Roses Of Picardy
TTITLE9=Sheik Of Araby
TTITLE10=You Are My Sunshine
TTITLE11=In A Little Spanish Town
TTITLE12=Margie
TTITLE13=Tuxedo Boogie
TTITLE14=Mr. Bell Boogie
TTITLE15=Bear Den Boogie
TTITLE16=Rhythm Boogie
TTITLE17=Ammons Stomp
TTITLE18=Baltimore Breakdown
TTITLE19=When You And I Were Young, Maggie
TTITLE20=The Clipper
EXTD=
EXTT0=
EXTT1=
EXTT2=
EXTT3=
EXTT4=
EXTT5=
EXTT6=
EXTT7=
EXTT8=
EXTT9=
EXTT10=
EXTT11=
EXTT12=
EXTT13=
EXTT14=
EXTT15=
EXTT16=
EXTT17=
EXTT18=
EXTT19=
EXTT20=
PLAYORDER=
